<?xml version="1.0" standalone="no"?>
<!DOCTYPE svg PUBLIC "-//W3C//DTD SVG 20010904//EN"
 "http://www.w3.org/TR/2001/REC-SVG-20010904/DTD/svg10.dtd">
<svg version="1.0" xmlns="http://www.w3.org/2000/svg"
 width="1024.000000pt" height="1024.000000pt" viewBox="0 0 1024.000000 1024.000000"
 preserveAspectRatio="xMidYMid meet">

<g transform="translate(0.000000,1024.000000) scale(0.100000,-0.100000)"
fill="#000000" stroke="none">
<path d="M1455 9271 c-198 -49 -367 -185 -455 -366 -76 -156 -70 181 -70
-3695 0 -3897 -7 -3552 76 -3719 77 -156 220 -281 394 -343 l65 -23 3628 -3
c4052 -2 3685 -9 3847 71 153 75 279 221 342 397 l23 65 3 3515 c3 3943 10
3582 -73 3748 -79 159 -216 279 -385 337 l-85 30 -3620 2 c-3405 2 -3624 1
-3690 -16z m2447 -822 c28 -13 64 -59 195 -249 239 -347 490 -731 475 -726
-251 79 -481 57 -690 -65 -79 -47 -230 -200 -279 -281 l-39 -67 -555 692
c-305 380 -555 695 -557 699 -6 13 1423 10 1450 -3z m573 -1169 c174 -66 300
-202 351 -375 25 -87 23 -249 -5 -336 -51 -161 -192 -302 -359 -360 -83 -29
-211 -36 -292 -15 -120 30 -205 79 -290 164 -142 142 -195 316 -155 507 21 98
67 185 136 260 75 79 141 122 244 158 73 26 89 27 195 24 89 -3 129 -9 175
-27z m-951 -702 c10 -59 59 -178 102 -244 99 -156 270 -281 448 -329 l64 -17
-77 -62 c-42 -34 -254 -206 -471 -381 -217 -176 -460 -372 -540 -437 -160
-130 -192 -149 -263 -156 -113 -11 -211 55 -243 164 l-17 58 93 380 c51 210
99 392 106 406 12 25 90 92 464 401 297 245 314 259 321 259 3 0 9 -19 13 -42z
m28 -1968 c169 -223 414 -544 543 -715 l236 -309 -61 -17 c-95 -26 -204 -85
-271 -146 -34 -32 -64 -52 -68 -47 -5 5 -109 135 -231 289 -121 154 -370 468
-553 698 -183 230 -333 422 -335 426 -1 4 12 8 30 9 121 9 273 97 350 201 26
35 34 41 42 29 6 -7 149 -196 318 -418z m1134 -1259 c28 -13 84 -66 183 -175
l143 -156 299 0 c328 0 335 -1 403 -60 66 -58 76 -91 76 -243 0 -118 -2 -138
-19 -158 l-19 -24 -969 3 -968 3 -22 25 c-40 45 -32 75 104 372 143 312 169
347 285 402 l63 30 200 0 c173 0 205 -3 241 -19z"/>
<path d="M4190 7061 c-157 -48 -258 -207 -230 -363 33 -186 220 -310 398 -264
108 27 182 89 228 190 23 51 26 67 22 140 -3 66 -10 91 -33 135 -60 109 -167
172 -293 170 -37 0 -78 -4 -92 -8z"/>
</g>
</svg>
